<?xml version="1.0" encoding="UTF-8" standalone="no"?><svg xmlns="http://www.w3.org/2000/svg" xmlns:xlink="http://www.w3.org/1999/xlink" contentStyleType="text/css" height="589px" preserveAspectRatio="none" style="width:1364px;height:589px;background:#FFFFFF;" version="1.1" viewBox="0 0 1364 589" width="1364px" zoomAndPan="magnify"><defs/><g><rect height="26.2969" style="stroke:#00000000;stroke-width:1.0;fill:none;" width="163" x="593.5" y="5"/><text fill="#000000" font-family="sans-serif" font-size="14" font-weight="bold" lengthAdjust="spacing" textLength="153" x="598.5" y="22.9951">behavior2 Diagram</text><!--MD5=[09ce52be0ee7de43c61b6e2d59bf108b]
class Person--><g id="elem_Person"><rect codeLine="6" fill="#F1F1F1" height="243.5625" id="Person" rx="2.5" ry="2.5" style="stroke:#181818;stroke-width:0.5;" width="219" x="1138" y="177.2289"/><ellipse cx="1218.75" cy="193.2289" fill="#ADD1B2" rx="11" ry="11" style="stroke:#181818;stroke-width:1.0;"/><path d="M1221.0938,188.9008 C1220.1563,188.4633 1219.5625,188.3226 1218.6875,188.3226 C1216.0625,188.3226 1214.0625,190.4008 1214.0625,193.1195 L1214.0625,194.2445 C1214.0625,196.8226 1216.1719,198.7133 1219.0625,198.7133 C1220.2813,198.7133 1221.4375,198.4164 1222.1875,197.8695 C1222.7656,197.4633 1223.0938,197.0101 1223.0938,196.6195 C1223.0938,196.1664 1222.7031,195.7758 1222.2344,195.7758 C1222.0156,195.7758 1221.8125,195.8539 1221.625,196.0414 C1221.1719,196.5258 1221.1719,196.5258 1220.9844,196.6195 C1220.5625,196.8851 1219.875,197.0101 1219.1094,197.0101 C1217.0625,197.0101 1215.7656,195.9164 1215.7656,194.2133 L1215.7656,193.1195 C1215.7656,191.3383 1217.0156,190.0258 1218.75,190.0258 C1219.3281,190.0258 1219.9375,190.182 1220.4063,190.432 C1220.8906,190.7133 1221.0625,190.932 1221.1563,191.3383 C1221.2188,191.7445 1221.25,191.8695 1221.3906,191.9945 C1221.5313,192.1351 1221.7656,192.2445 1221.9844,192.2445 C1222.25,192.2445 1222.5156,192.1039 1222.6875,191.8851 C1222.7969,191.7289 1222.8281,191.5414 1222.8281,191.1195 L1222.8281,189.6976 C1222.8281,189.2601 1222.8125,189.1351 1222.7188,188.9789 C1222.5625,188.7133 1222.2813,188.5726 1221.9844,188.5726 C1221.6875,188.5726 1221.4844,188.6664 1221.2656,188.9789 L1221.0938,188.9008 Z " fill="#000000"/><text fill="#000000" font-family="sans-serif" font-size="14" lengthAdjust="spacing" textLength="49" x="1239.25" y="198.0756">Person</text><line style="stroke:#181818;stroke-width:0.5;" x1="1139" x2="1356" y1="209.2289" y2="209.2289"/><text fill="#000000" font-family="sans-serif" font-size="14" lengthAdjust="spacing" textLength="99" x="1144" y="226.224">-name: String</text><text fill="#000000" font-family="sans-serif" font-size="14" lengthAdjust="spacing" textLength="94" x="1144" y="242.5209">-age: Integer</text><text fill="#000000" font-family="sans-serif" font-size="14" lengthAdjust="spacing" textLength="115" x="1144" y="258.8177">-height: Integer</text><text fill="#000000" font-family="sans-serif" font-size="14" lengthAdjust="spacing" textLength="117" x="1144" y="275.1146">-weight: Integer</text><line style="stroke:#181818;stroke-width:0.5;" x1="1139" x2="1356" y1="282.4164" y2="282.4164"/><text fill="#000000" font-family="sans-serif" font-size="14" lengthAdjust="spacing" textLength="140" x="1144" y="299.4115">+getName(): String</text><text fill="#000000" font-family="sans-serif" font-size="14" lengthAdjust="spacing" textLength="178" x="1144" y="315.7084">+setName(name: String)</text><text fill="#000000" font-family="sans-serif" font-size="14" lengthAdjust="spacing" textLength="136" x="1144" y="332.0052">+getAge(): Integer</text><text fill="#000000" font-family="sans-serif" font-size="14" lengthAdjust="spacing" textLength="160" x="1144" y="348.3021">+setAge(age: Integer)</text><text fill="#000000" font-family="sans-serif" font-size="14" lengthAdjust="spacing" textLength="156" x="1144" y="364.599">+getHeight(): Integer</text><text fill="#000000" font-family="sans-serif" font-size="14" lengthAdjust="spacing" textLength="201" x="1144" y="380.8959">+setHeight(height: Integer)</text><text fill="#000000" font-family="sans-serif" font-size="14" lengthAdjust="spacing" textLength="160" x="1144" y="397.1927">+getWeight(): Integer</text><text fill="#000000" font-family="sans-serif" font-size="14" lengthAdjust="spacing" textLength="207" x="1144" y="413.4896">+setWeight(weight: Integer)</text></g><!--MD5=[cf8fdaefc782a1097e8f7fd601adea66]
class People--><g id="elem_People"><rect codeLine="21" fill="#F1F1F1" height="145.7813" id="People" rx="2.5" ry="2.5" style="stroke:#181818;stroke-width:0.5;" width="384" x="7" y="109.2289"/><ellipse cx="169.75" cy="125.2289" fill="#ADD1B2" rx="11" ry="11" style="stroke:#181818;stroke-width:1.0;"/><path d="M172.0938,120.9008 C171.1563,120.4633 170.5625,120.3226 169.6875,120.3226 C167.0625,120.3226 165.0625,122.4008 165.0625,125.1195 L165.0625,126.2445 C165.0625,128.8226 167.1719,130.7133 170.0625,130.7133 C171.2813,130.7133 172.4375,130.4164 173.1875,129.8695 C173.7656,129.4633 174.0938,129.0101 174.0938,128.6195 C174.0938,128.1664 173.7031,127.7758 173.2344,127.7758 C173.0156,127.7758 172.8125,127.8539 172.625,128.0414 C172.1719,128.5258 172.1719,128.5258 171.9844,128.6195 C171.5625,128.8851 170.875,129.0101 170.1094,129.0101 C168.0625,129.0101 166.7656,127.9164 166.7656,126.2133 L166.7656,125.1195 C166.7656,123.3383 168.0156,122.0258 169.75,122.0258 C170.3281,122.0258 170.9375,122.182 171.4063,122.432 C171.8906,122.7133 172.0625,122.932 172.1563,123.3383 C172.2188,123.7445 172.25,123.8695 172.3906,123.9945 C172.5313,124.1351 172.7656,124.2445 172.9844,124.2445 C173.25,124.2445 173.5156,124.1039 173.6875,123.8851 C173.7969,123.7289 173.8281,123.5414 173.8281,123.1195 L173.8281,121.6976 C173.8281,121.2601 173.8125,121.1351 173.7188,120.9789 C173.5625,120.7133 173.2813,120.5726 172.9844,120.5726 C172.6875,120.5726 172.4844,120.6664 172.2656,120.9789 L172.0938,120.9008 Z " fill="#000000"/><text fill="#000000" font-family="sans-serif" font-size="14" lengthAdjust="spacing" textLength="50" x="190.25" y="130.0756">People</text><line style="stroke:#181818;stroke-width:0.5;" x1="8" x2="390" y1="141.2289" y2="141.2289"/><text fill="#000000" font-family="sans-serif" font-size="14" lengthAdjust="spacing" textLength="150" x="13" y="158.224">-members: Person[*]</text><text fill="#000000" font-family="sans-serif" font-size="14" lengthAdjust="spacing" textLength="201" x="13" y="174.5209">-sortStrategy: SortStrategy</text><line style="stroke:#181818;stroke-width:0.5;" x1="8" x2="390" y1="181.8226" y2="181.8226"/><text fill="#000000" font-family="sans-serif" font-size="14" lengthAdjust="spacing" textLength="71" x="13" y="198.8177">+People()</text><text fill="#000000" font-family="sans-serif" font-size="14" lengthAdjust="spacing" textLength="372" x="13" y="215.1146">+setSortStrategy(sortStrategy: SortStrategy): void</text><text fill="#000000" font-family="sans-serif" font-size="14" lengthAdjust="spacing" textLength="218" x="13" y="231.4115">+addMember(p: Person) : void</text><text fill="#000000" font-family="sans-serif" font-size="14" lengthAdjust="spacing" textLength="221" x="13" y="247.7084">+print(out: PrintStream) : void</text></g><!--MD5=[6b1b16963de3ac98b715edbb6b5898d8]
class NameSortStrategy--><g id="elem_NameSortStrategy"><rect codeLine="47" fill="#F1F1F1" height="64.2969" id="NameSortStrategy" rx="2.5" ry="2.5" style="stroke:#181818;stroke-width:0.5;" width="282" x="795" y="150.2289"/><ellipse cx="864.25" cy="166.2289" fill="#ADD1B2" rx="11" ry="11" style="stroke:#181818;stroke-width:1.0;"/><path d="M866.5938,161.9008 C865.6563,161.4633 865.0625,161.3226 864.1875,161.3226 C861.5625,161.3226 859.5625,163.4008 859.5625,166.1195 L859.5625,167.2445 C859.5625,169.8226 861.6719,171.7133 864.5625,171.7133 C865.7813,171.7133 866.9375,171.4164 867.6875,170.8695 C868.2656,170.4633 868.5938,170.0101 868.5938,169.6195 C868.5938,169.1664 868.2031,168.7758 867.7344,168.7758 C867.5156,168.7758 867.3125,168.8539 867.125,169.0414 C866.6719,169.5258 866.6719,169.5258 866.4844,169.6195 C866.0625,169.8851 865.375,170.0101 864.6094,170.0101 C862.5625,170.0101 861.2656,168.9164 861.2656,167.2133 L861.2656,166.1195 C861.2656,164.3383 862.5156,163.0258 864.25,163.0258 C864.8281,163.0258 865.4375,163.182 865.9063,163.432 C866.3906,163.7133 866.5625,163.932 866.6563,164.3383 C866.7188,164.7445 866.75,164.8695 866.8906,164.9945 C867.0313,165.1351 867.2656,165.2445 867.4844,165.2445 C867.75,165.2445 868.0156,165.1039 868.1875,164.8851 C868.2969,164.7289 868.3281,164.5414 868.3281,164.1195 L868.3281,162.6976 C868.3281,162.2601 868.3125,162.1351 868.2188,161.9789 C868.0625,161.7133 867.7813,161.5726 867.4844,161.5726 C867.1875,161.5726 866.9844,161.6664 866.7656,161.9789 L866.5938,161.9008 Z " fill="#000000"/><text fill="#000000" font-family="sans-serif" font-size="14" lengthAdjust="spacing" textLength="135" x="884.75" y="171.0756">NameSortStrategy</text><line style="stroke:#181818;stroke-width:0.5;" x1="796" x2="1076" y1="182.2289" y2="182.2289"/><line style="stroke:#181818;stroke-width:0.5;" x1="796" x2="1076" y1="190.2289" y2="190.2289"/><text fill="#000000" font-family="sans-serif" font-size="14" lengthAdjust="spacing" textLength="270" x="801" y="207.224">+customSort(people: Person[*]): void</text></g><!--MD5=[24cac15c1f9aefe6275c5d949d6c000c]
class SortStrategy--><g id="elem_SortStrategy"><rect codeLine="35" fill="#F1F1F1" height="64.2969" id="SortStrategy" rx="2.5" ry="2.5" style="stroke:#181818;stroke-width:0.5;" width="282" x="452" y="272.2289"/><ellipse cx="544.25" cy="288.2289" fill="#B4A7E5" rx="11" ry="11" style="stroke:#181818;stroke-width:1.0;"/><path d="M545.2031,285.0101 L546.9219,285.0101 C547.3125,285.0101 547.5,284.9789 547.625,284.9008 C547.8906,284.7445 548.0313,284.4633 548.0313,284.1664 C548.0313,283.9008 547.9219,283.6351 547.6875,283.4633 C547.5156,283.3539 547.375,283.3226 546.9219,283.3226 L541.7813,283.3226 C541.3438,283.3226 541.2188,283.3383 541.0625,283.432 C540.8125,283.5883 540.6563,283.8851 540.6563,284.1664 C540.6563,284.4476 540.7969,284.6976 541.0156,284.8695 C541.1719,284.9789 541.3594,285.0101 541.7813,285.0101 L543.5,285.0101 L543.5,291.5258 L541.7813,291.5258 C541.3438,291.5258 541.2188,291.5414 541.0625,291.6508 C540.8125,291.807 540.6563,292.0883 540.6563,292.3851 C540.6563,292.6351 540.7969,292.9008 541.0156,293.057 C541.1719,293.182 541.375,293.2289 541.7813,293.2289 L546.9219,293.2289 C547.6719,293.2289 548.0313,292.9476 548.0313,292.3851 C548.0313,292.1039 547.9219,291.8539 547.6875,291.682 C547.5156,291.557 547.375,291.5258 546.9219,291.5258 L545.2031,291.5258 L545.2031,285.0101 Z " fill="#000000"/><text fill="#000000" font-family="sans-serif" font-size="14" font-style="italic" lengthAdjust="spacing" textLength="89" x="564.75" y="293.0756">SortStrategy</text><line style="stroke:#181818;stroke-width:0.5;" x1="453" x2="733" y1="304.2289" y2="304.2289"/><line style="stroke:#181818;stroke-width:0.5;" x1="453" x2="733" y1="312.2289" y2="312.2289"/><text fill="#000000" font-family="sans-serif" font-size="14" lengthAdjust="spacing" textLength="270" x="458" y="329.224">+customSort(people: Person[*]): void</text></g><!--MD5=[0d9a43a39e25c5d2daee3f6472852af0]
class WeightStrategy--><g id="elem_WeightStrategy"><rect codeLine="41" fill="#F1F1F1" height="64.2969" id="WeightStrategy" rx="2.5" ry="2.5" style="stroke:#181818;stroke-width:0.5;" width="282" x="795" y="320.2289"/><ellipse cx="874.25" cy="336.2289" fill="#ADD1B2" rx="11" ry="11" style="stroke:#181818;stroke-width:1.0;"/><path d="M876.5938,331.9008 C875.6563,331.4633 875.0625,331.3226 874.1875,331.3226 C871.5625,331.3226 869.5625,333.4008 869.5625,336.1195 L869.5625,337.2445 C869.5625,339.8226 871.6719,341.7133 874.5625,341.7133 C875.7813,341.7133 876.9375,341.4164 877.6875,340.8695 C878.2656,340.4633 878.5938,340.0101 878.5938,339.6195 C878.5938,339.1664 878.2031,338.7758 877.7344,338.7758 C877.5156,338.7758 877.3125,338.8539 877.125,339.0414 C876.6719,339.5258 876.6719,339.5258 876.4844,339.6195 C876.0625,339.8851 875.375,340.0101 874.6094,340.0101 C872.5625,340.0101 871.2656,338.9164 871.2656,337.2133 L871.2656,336.1195 C871.2656,334.3383 872.5156,333.0258 874.25,333.0258 C874.8281,333.0258 875.4375,333.182 875.9063,333.432 C876.3906,333.7133 876.5625,333.932 876.6563,334.3383 C876.7188,334.7445 876.75,334.8695 876.8906,334.9945 C877.0313,335.1351 877.2656,335.2445 877.4844,335.2445 C877.75,335.2445 878.0156,335.1039 878.1875,334.8851 C878.2969,334.7289 878.3281,334.5414 878.3281,334.1195 L878.3281,332.6976 C878.3281,332.2601 878.3125,332.1351 878.2188,331.9789 C878.0625,331.7133 877.7813,331.5726 877.4844,331.5726 C877.1875,331.5726 876.9844,331.6664 876.7656,331.9789 L876.5938,331.9008 Z " fill="#000000"/><text fill="#000000" font-family="sans-serif" font-size="14" lengthAdjust="spacing" textLength="115" x="894.75" y="341.0756">WeightStrategy</text><line style="stroke:#181818;stroke-width:0.5;" x1="796" x2="1076" y1="352.2289" y2="352.2289"/><line style="stroke:#181818;stroke-width:0.5;" x1="796" x2="1076" y1="360.2289" y2="360.2289"/><text fill="#000000" font-family="sans-serif" font-size="14" lengthAdjust="spacing" textLength="270" x="801" y="377.224">+customSort(people: Person[*]): void</text></g><!--MD5=[ae02baf58179ba852507205754c89be4]
class HeightSortStrategy--><g id="elem_HeightSortStrategy"><rect codeLine="53" fill="#F1F1F1" height="64.2969" id="HeightSortStrategy" rx="2.5" ry="2.5" style="stroke:#181818;stroke-width:0.5;" width="277" x="797.5" y="419.2289"/><ellipse cx="860.75" cy="435.2289" fill="#ADD1B2" rx="11" ry="11" style="stroke:#181818;stroke-width:1.0;"/><path d="M863.0938,430.9008 C862.1563,430.4633 861.5625,430.3226 860.6875,430.3226 C858.0625,430.3226 856.0625,432.4008 856.0625,435.1195 L856.0625,436.2445 C856.0625,438.8226 858.1719,440.7133 861.0625,440.7133 C862.2813,440.7133 863.4375,440.4164 864.1875,439.8695 C864.7656,439.4633 865.0938,439.0101 865.0938,438.6195 C865.0938,438.1664 864.7031,437.7758 864.2344,437.7758 C864.0156,437.7758 863.8125,437.8539 863.625,438.0414 C863.1719,438.5258 863.1719,438.5258 862.9844,438.6195 C862.5625,438.8851 861.875,439.0101 861.1094,439.0101 C859.0625,439.0101 857.7656,437.9164 857.7656,436.2133 L857.7656,435.1195 C857.7656,433.3383 859.0156,432.0258 860.75,432.0258 C861.3281,432.0258 861.9375,432.182 862.4063,432.432 C862.8906,432.7133 863.0625,432.932 863.1563,433.3383 C863.2188,433.7445 863.25,433.8695 863.3906,433.9945 C863.5313,434.1351 863.7656,434.2445 863.9844,434.2445 C864.25,434.2445 864.5156,434.1039 864.6875,433.8851 C864.7969,433.7289 864.8281,433.5414 864.8281,433.1195 L864.8281,431.6976 C864.8281,431.2601 864.8125,431.1351 864.7188,430.9789 C864.5625,430.7133 864.2813,430.5726 863.9844,430.5726 C863.6875,430.5726 863.4844,430.6664 863.2656,430.9789 L863.0938,430.9008 Z " fill="#000000"/><text fill="#000000" font-family="sans-serif" font-size="14" lengthAdjust="spacing" textLength="142" x="881.25" y="440.0756">HeightSortStrategy</text><line style="stroke:#181818;stroke-width:0.5;" x1="798.5" x2="1073.5" y1="451.2289" y2="451.2289"/><line style="stroke:#181818;stroke-width:0.5;" x1="798.5" x2="1073.5" y1="459.2289" y2="459.2289"/><text fill="#000000" font-family="sans-serif" font-size="14" lengthAdjust="spacing" textLength="265" x="803.5" y="476.224">+customSort(people: Person[*]: void</text></g><!--MD5=[8e0a0a9ac050e6d846a9bccac69c9fbb]
class AgeSortStrategy--><g id="elem_AgeSortStrategy"><rect codeLine="59" fill="#F1F1F1" height="64.2969" id="AgeSortStrategy" rx="2.5" ry="2.5" style="stroke:#181818;stroke-width:0.5;" width="282" x="795" y="518.2289"/><ellipse cx="870.75" cy="534.2289" fill="#ADD1B2" rx="11" ry="11" style="stroke:#181818;stroke-width:1.0;"/><path d="M873.0938,529.9008 C872.1563,529.4633 871.5625,529.3226 870.6875,529.3226 C868.0625,529.3226 866.0625,531.4008 866.0625,534.1195 L866.0625,535.2445 C866.0625,537.8226 868.1719,539.7133 871.0625,539.7133 C872.2813,539.7133 873.4375,539.4164 874.1875,538.8695 C874.7656,538.4633 875.0938,538.0101 875.0938,537.6195 C875.0938,537.1664 874.7031,536.7758 874.2344,536.7758 C874.0156,536.7758 873.8125,536.8539 873.625,537.0414 C873.1719,537.5258 873.1719,537.5258 872.9844,537.6195 C872.5625,537.8851 871.875,538.0101 871.1094,538.0101 C869.0625,538.0101 867.7656,536.9164 867.7656,535.2133 L867.7656,534.1195 C867.7656,532.3383 869.0156,531.0258 870.75,531.0258 C871.3281,531.0258 871.9375,531.182 872.4063,531.432 C872.8906,531.7133 873.0625,531.932 873.1563,532.3383 C873.2188,532.7445 873.25,532.8695 873.3906,532.9945 C873.5313,533.1351 873.7656,533.2445 873.9844,533.2445 C874.25,533.2445 874.5156,533.1039 874.6875,532.8851 C874.7969,532.7289 874.8281,532.5414 874.8281,532.1195 L874.8281,530.6976 C874.8281,530.2601 874.8125,530.1351 874.7188,529.9789 C874.5625,529.7133 874.2813,529.5726 873.9844,529.5726 C873.6875,529.5726 873.4844,529.6664 873.2656,529.9789 L873.0938,529.9008 Z " fill="#000000"/><text fill="#000000" font-family="sans-serif" font-size="14" lengthAdjust="spacing" textLength="122" x="891.25" y="539.0756">AgeSortStrategy</text><line style="stroke:#181818;stroke-width:0.5;" x1="796" x2="1076" y1="550.2289" y2="550.2289"/><line style="stroke:#181818;stroke-width:0.5;" x1="796" x2="1076" y1="558.2289" y2="558.2289"/><text fill="#000000" font-family="sans-serif" font-size="14" lengthAdjust="spacing" textLength="270" x="801" y="575.224">+customSort(people: Person[*]): void</text></g><!--MD5=[229ad90aec11d960298b97a54d4095e1]
link People to Person--><g id="link_People_Person"><path codeLine="30" d="M402.9948,122.3812 C402.9948,122.3812 860.022,43.2969 1077,132.2289 C1098.29,140.9539 1118.33,153.7849 1136.67,168.5229 " fill="none" id="People-Person" style="stroke:#181818;stroke-width:1.0;"/><polygon fill="#181818" points="1146.68,176.8929,1142.3435,168.0501,1142.845,173.6847,1137.2104,174.1861,1146.68,176.8929" style="stroke:#181818;stroke-width:1.0;"/><line style="stroke:#181818;stroke-width:1.0;" x1="1142.845" x2="1136.71" y1="173.6847" y2="168.5534"/><polygon fill="none" points="391.32,125.1559,398.0823,127.6602,402.9948,122.3812,396.2325,119.877,391.32,125.1559" style="stroke:#181818;stroke-width:1.0;"/><text fill="#000000" font-family="sans-serif" font-size="13" lengthAdjust="spacing" textLength="7" x="1133.2011" y="166.0653">*</text></g><!--MD5=[23238b4778499775fcc898d4ee93e60e]
link People to NameSortStrategy--><g id="link_People_NameSortStrategy"><path codeLine="31" d="M391.194,182.2289 C515.776,182.2289 675.784,182.2289 789.916,182.2289 " fill="none" id="People-to-NameSortStrategy" style="stroke:#181818;stroke-width:1.0;stroke-dasharray:7.0,7.0;"/><polygon fill="#181818" points="794.976,182.2289,785.976,178.2289,789.976,182.2289,785.976,186.2289,794.976,182.2289" style="stroke:#181818;stroke-width:1.0;"/><text fill="#000000" font-family="sans-serif" font-size="13" lengthAdjust="spacing" textLength="59" x="563.5" y="178.2958">«Create»</text></g><!--MD5=[a7f5c7da628e3d59504e8c45961fb70b]
link People to SortStrategy--><g id="link_People_SortStrategy"><path codeLine="32" d="M402.578,245.2756 C402.578,245.2756 453.424,261.1009 476.383,268.2459 " fill="none" id="People-SortStrategy" style="stroke:#181818;stroke-width:1.0;"/><polygon fill="#181818" points="488.945,272.1559,481.5408,265.6615,484.171,270.6697,479.1628,273.2999,488.945,272.1559" style="stroke:#181818;stroke-width:1.0;"/><line style="stroke:#181818;stroke-width:1.0;" x1="484.171" x2="476.5325" y1="270.6697" y2="268.2924"/><polygon fill="none" points="391.12,241.7099,395.6604,247.3121,402.578,245.2756,398.0376,239.6734,391.12,241.7099" style="stroke:#181818;stroke-width:1.0;"/></g><!--MD5=[f35cf4ccda0c1f3d38ef7fdefaec20d4]
link SortStrategy to Person--><g id="link_SortStrategy_Person"><path codeLine="39" d="M734.162,300.0529 C837.499,297.4589 981.5,294.8589 1108,296.2289 C1115.97,296.3149 1124.19,296.4289 1132.47,296.5629 " fill="none" id="SortStrategy-to-Person" style="stroke:#181818;stroke-width:1.0;stroke-dasharray:7.0,7.0;"/><polygon fill="#181818" points="1137.63,296.6479,1128.6999,292.4942,1132.6307,296.5621,1128.5627,300.493,1137.63,296.6479" style="stroke:#181818;stroke-width:1.0;"/></g><!--MD5=[5e341ce4ffd1b36a6061c92f9c8d9c60]
reverse link SortStrategy to WeightStrategy--><g id="link_SortStrategy_WeightStrategy"><path d="M754.029,326.7549 C767.653,328.6729 781.366,330.6029 794.819,332.4969 " fill="none" id="SortStrategy-backto-WeightStrategy" style="stroke:#181818;stroke-width:1.0;stroke-dasharray:7.0,7.0;"/><polygon fill="none" points="753.003,333.6799,734.174,323.9599,754.954,319.8159,753.003,333.6799" style="stroke:#181818;stroke-width:1.0;"/></g><!--MD5=[1f38c7e96371b5494675ce102c449fef]
link WeightStrategy to Person--><g id="link_WeightStrategy_Person"><path codeLine="45" d="M1077.26,328.2099 C1095.83,325.0309 1114.68,321.8029 1132.72,318.7129 " fill="none" id="WeightStrategy-to-Person" style="stroke:#181818;stroke-width:1.0;stroke-dasharray:7.0,7.0;"/><polygon fill="#181818" points="1137.79,317.8449,1128.2445,315.4192,1132.8615,318.6877,1129.5931,323.3047,1137.79,317.8449" style="stroke:#181818;stroke-width:1.0;"/></g><!--MD5=[0fba23228dfbc735298fb8cc037ac0b1]
reverse link SortStrategy to NameSortStrategy--><g id="link_SortStrategy_NameSortStrategy"><path d="M702.525,265.4019 C748.586,248.9219 801.633,229.9439 845.413,214.2809 " fill="none" id="SortStrategy-backto-NameSortStrategy" style="stroke:#181818;stroke-width:1.0;stroke-dasharray:7.0,7.0;"/><polygon fill="none" points="704.783,272.0289,683.594,272.1749,700.067,258.8469,704.783,272.0289" style="stroke:#181818;stroke-width:1.0;"/></g><!--MD5=[28d9a33d9ce77df2f2bc1982df04076e]
link NameSortStrategy to Person--><g id="link_NameSortStrategy_Person"><path codeLine="51" d="M1033.71,214.3819 C1058.07,222.8129 1084.09,232.1069 1108,241.2289 C1116.22,244.3649 1124.68,247.6819 1133.17,251.0779 " fill="none" id="NameSortStrategy-to-Person" style="stroke:#181818;stroke-width:1.0;stroke-dasharray:7.0,7.0;"/><polygon fill="#181818" points="1137.9,252.9719,1131.0495,245.8958,1133.263,251.1016,1128.0571,253.3151,1137.9,252.9719" style="stroke:#181818;stroke-width:1.0;"/></g><!--MD5=[d0c7a563b171ad5f17e28c7b104f5cab]
reverse link SortStrategy to HeightSortStrategy--><g id="link_SortStrategy_HeightSortStrategy"><path d="M673.022,345.4109 C709.667,363.8179 754.08,385.1609 795,402.2289 C809.022,408.0779 824.018,413.8329 838.792,419.2279 " fill="none" id="SortStrategy-backto-HeightSortStrategy" style="stroke:#181818;stroke-width:1.0;stroke-dasharray:7.0,7.0;"/><polygon fill="none" points="669.847,351.6489,655.168,336.3669,676.173,339.1599,669.847,351.6489" style="stroke:#181818;stroke-width:1.0;"/></g><!--MD5=[678bea546e766b0ac58db5ac8968c374]
link HeightSortStrategy to Person--><g id="link_HeightSortStrategy_Person"><path codeLine="57" d="M1037.08,419.0879 C1050.68,413.8869 1064.31,408.2239 1077,402.2289 C1095.51,393.4829 1114.57,383.2429 1132.92,372.6749 " fill="none" id="HeightSortStrategy-to-Person" style="stroke:#181818;stroke-width:1.0;stroke-dasharray:7.0,7.0;"/><polygon fill="#181818" points="1137.57,369.9819,1127.7762,371.0221,1133.241,372.4838,1131.7793,377.9485,1137.57,369.9819" style="stroke:#181818;stroke-width:1.0;"/></g><!--MD5=[52ad52f8e047c32bd8c154980850220b]
reverse link SortStrategy to AgeSortStrategy--><g id="link_SortStrategy_AgeSortStrategy"><path d="M631.804,351.7879 C669.122,395.9419 729.905,460.7779 795,501.2289 C805.171,507.549 816.265,513.1898 827.613,518.1895 " fill="none" id="SortStrategy-backto-AgeSortStrategy" style="stroke:#181818;stroke-width:1.0;stroke-dasharray:7.0,7.0;"/><polygon fill="none" points="626.301,356.1179,618.921,336.2559,637.077,347.1809,626.301,356.1179" style="stroke:#181818;stroke-width:1.0;"/></g><!--MD5=[af62f0a81685af49ded5f2baae761927]
link AgeSortStrategy to Person--><g id="link_AgeSortStrategy_Person"><path codeLine="63" d="M1047.2,518.1559 C1057.66,513.2157 1067.78,507.597 1077,501.2289 C1106.88,480.5779 1134.53,453.3229 1158.45,425.5409 " fill="none" id="AgeSortStrategy-to-Person" style="stroke:#181818;stroke-width:1.0;stroke-dasharray:7.0,7.0;"/><polygon fill="#181818" points="1161.95,421.4389,1153.0632,425.6845,1158.7026,425.2408,1159.1463,430.8802,1161.95,421.4389" style="stroke:#181818;stroke-width:1.0;"/></g><!--MD5=[c2a9910e7f12802a26981b7dce05eb4e]
@startuml
skinparam classAttributeIconSize 0
left to right direction

title behavior2 Diagram

class Person {
  - name: String
  - age: Integer
  - height: Integer
  - weight: Integer
  + getName(): String
  + setName(name: String)
  + getAge(): Integer
  + setAge(age: Integer)
  + getHeight(): Integer
  + setHeight(height: Integer)
  + getWeight(): Integer
  + setWeight(weight: Integer)
}

class People {
  - members: Person[*]
  - sortStrategy: SortStrategy
  + People()
  + setSortStrategy(sortStrategy: SortStrategy): void
  + addMember(p: Person) : void
  + print(out: PrintStream) : void
}

People o- -> " *" Person
People ..> NameSortStrategy : <<Create>>
People o- -> SortStrategy


interface SortStrategy {
  + customSort(people: Person[*]): void
}

SortStrategy ..> Person

class WeightStrategy implements SortStrategy {
  + customSort(people: Person[*]): void
}

WeightStrategy ..> Person

class NameSortStrategy implements SortStrategy {
  + customSort(people: Person[*]): void
}

NameSortStrategy ..> Person

class HeightSortStrategy implements SortStrategy {
  + customSort(people: Person[*]: void
}

HeightSortStrategy ..> Person

class AgeSortStrategy implements SortStrategy {
  + customSort(people: Person[*]): void
}

AgeSortStrategy ..> Person
@enduml

PlantUML version 1.2022.4beta2(Unknown compile time)
(GPL source distribution)
Java Runtime: Java(TM) SE Runtime Environment
JVM: Java HotSpot(TM) 64-Bit Server VM
Default Encoding: UTF-8
Language: en
Country: US
--></g></svg>